<svg width="134" height="134" viewBox="0 0 134 134" fill="none" xmlns="http://www.w3.org/2000/svg">
<g clip-path="url(#clip0_1_2)">
<g opacity="0.2">
<path d="M90.0312 106.781C90.0312 106.781 68.7336 110.969 50.4238 110.969C32.1139 110.969 22.8554 96.1387 22.8554 96.1387H110.619C110.619 96.1387 107.131 104.687 90.0312 106.781Z" fill="#231F20"/>
<path d="M50.4238 112.016C31.7496 112.016 22.3612 97.3175 21.9697 96.6915C21.7666 96.369 21.7561 95.9629 21.9404 95.6299C22.1246 95.297 22.4764 95.0919 22.8575 95.0919H110.619C110.969 95.0919 111.293 95.2656 111.488 95.5546C111.683 95.8435 111.718 96.2099 111.588 96.5344C111.438 96.9071 107.667 105.678 90.159 107.822C90.0187 107.851 68.6226 112.016 50.4238 112.016ZM24.9198 97.1856C27.8971 100.927 36.5045 109.922 50.4238 109.922C68.4216 109.922 89.6188 105.795 89.8281 105.753C101.796 104.286 106.871 99.5892 108.726 97.1835L24.9198 97.1856Z" fill="#231F20"/>
</g>
<path opacity="0.2" d="M58.803 24.0928C58.3779 24.0153 57.955 24.2121 57.731 24.5785C57.509 24.9449 57.53 25.4098 57.7854 25.7531C71.8784 44.5445 65.4862 70.9028 61.7635 82.1148V37.6875C61.7635 37.1641 61.3762 36.7223 60.8569 36.649C60.3461 36.5904 59.8478 36.9023 59.7075 37.4048C59.5881 37.832 47.5972 80.1885 28.9524 86.9513C28.475 87.1251 28.1923 87.6172 28.2803 88.1176C28.3703 88.6201 28.8037 88.9844 29.3125 88.9844H60.7188H102.594C103.172 88.9844 103.641 88.5154 103.641 87.9375C103.641 32.4615 59.251 24.1703 58.803 24.0928Z" fill="#231F20"/>
<path d="M90.0313 102.594C90.0313 102.594 68.7336 106.781 50.4238 106.781C32.1139 106.781 22.8554 91.9512 22.8554 91.9512H110.619C110.619 91.9512 107.131 100.5 90.0313 102.594Z" fill="#77B3D4" stroke="#77B3D4" stroke-miterlimit="10" stroke-linejoin="round"/>
<path d="M60.7188 33.5C60.7188 33.5 48.6797 76.7234 29.3125 83.75H60.7188V33.5Z" fill="#F5CF87" stroke="#F5CF87" stroke-miterlimit="10" stroke-linejoin="round"/>
<path d="M60.7188 83.75C60.7188 83.75 77.4688 46.0625 58.625 20.9375C58.625 20.9375 102.594 28.5148 102.594 83.75H60.7188Z" fill="#C75C5C" stroke="#C75C5C" stroke-miterlimit="10" stroke-linejoin="round"/>
<g clip-path="url(#clip1_1_2)">
<path d="M129 67C129 101.794 101.018 130 66.5 130C31.9822 130 4 101.794 4 67C4 32.2061 31.9822 4 66.5 4" stroke="#C4C4C4" stroke-width="8" stroke-linecap="round"/>
<path d="M83 48.0809L85.6704 56.2995L85.676 56.3168H85.6942H94.3357L87.3446 61.3962L87.3299 61.4069L87.3355 61.4241L90.0059 69.6428L83.0147 64.5634L83 64.5527L82.9853 64.5634L75.9941 69.6428L78.6645 61.4241L78.6701 61.4069L78.6554 61.3962L71.6643 56.3168H80.3058H80.324L80.3296 56.2995L83 48.0809Z" fill="#FFDD29" stroke="#FFD600" stroke-width="0.05"/>
<path d="M127.172 132.828C128.734 134.391 131.266 134.391 132.828 132.828C134.391 131.266 134.391 128.734 132.828 127.172L127.172 132.828ZM108.172 113.828L127.172 132.828L132.828 127.172L113.828 108.172L108.172 113.828Z" fill="#C3C3C3"/>
</g>
</g>
<defs>
<clipPath id="clip0_1_2">
<rect width="134" height="134" fill="white"/>
</clipPath>
<clipPath id="clip1_1_2">
<rect width="134" height="134" fill="white"/>
</clipPath>
</defs>
</svg>
